HIERARCHY
ROOT hip
{
  OFFSET 5.70873 43.8894 -1.52928
  CHANNELS 6 Xposition Yposition Zposition Zrotation Xrotation Yrotation
  JOINT abdomen
  {
    OFFSET 0 5.99393 0.287273
    CHANNELS 6 Xposition Yposition Zposition Zrotation Xrotation Yrotation
    JOINT chest
    {
      OFFSET 0 6.65865 -0.856112
      CHANNELS 6 Xposition Yposition Zposition Zrotation Xrotation Yrotation
      JOINT neck
      {
        OFFSET 0 8.65624 -1.42685
        CHANNELS 6 Xposition Yposition Zposition Zrotation Xrotation Yrotation
        JOINT head
        {
          OFFSET 0 3.80999 -0.190247
          CHANNELS 6 Xposition Yposition Zposition Zrotation Xrotation Yrotation
          End Site
          {
            OFFSET 0 0 0
          }
        }
      }
      JOINT rCollar
      {
        OFFSET -1.4963 7.5744 -1.52136
        CHANNELS 6 Xposition Yposition Zposition Zrotation Xrotation Yrotation
        JOINT rShldr
        {
          OFFSET -5.47506 -0.905672 0.485692
          CHANNELS 6 Xposition Yposition Zposition Zrotation Xrotation Yrotation
          JOINT rForeArm
          {
            OFFSET -11.3069 -0.201091 0.618544
            CHANNELS 6 Xposition Yposition Zposition Zrotation Xrotation Yrotation
            JOINT rHand
            {
              OFFSET -9.61414 -0.254739 3.48553
              CHANNELS 6 Xposition Yposition Zposition Zrotation Xrotation Yrotation
              JOINT rThumb1
              {
                OFFSET 0.176263 -0.07068 1.26622
                CHANNELS 6 Xposition Yposition Zposition Zrotation Xrotation Yrotation
                JOINT rThumb2
                {
                  OFFSET -1.04683 -0.546484 1.82182
                  CHANNELS 6 Xposition Yposition Zposition Zrotation Xrotation Yrotation
                  JOINT rThumb3
                  {
                    OFFSET -0.993472 -0.621916 0.655506
                    CHANNELS 6 Xposition Yposition Zposition Zrotation Xrotation Yrotation
                    End Site
                    {
                      OFFSET -0.996134 -0.66263 0.644615
                    }
                  }
                }
              }
              JOINT rIndex1
              {
                OFFSET -2.64253 0.566363 2.4162
                CHANNELS 6 Xposition Yposition Zposition Zrotation Xrotation Yrotation
                JOINT rIndex2
                {
                  OFFSET -1.39394 -0.635138 0.899356
                  CHANNELS 6 Xposition Yposition Zposition Zrotation Xrotation Yrotation
                  JOINT rIndex3
                  {
                    OFFSET -0.622395 -0.856016 0.402182
                    CHANNELS 6 Xposition Yposition Zposition Zrotation Xrotation Yrotation
                    End Site
                    {
                      OFFSET -0.472476 -0.801802 0.34216
                    }
                  }
                }
              }
              JOINT rMid1
              {
                OFFSET -3.20814 0.514427 1.52547
                CHANNELS 6 Xposition Yposition Zposition Zrotation Xrotation Yrotation
                JOINT rMid2
                {
                  OFFSET -1.56545 -0.497974 0.68919
                  CHANNELS 6 Xposition Yposition Zposition Zrotation Xrotation Yrotation
                  JOINT rMid3
                  {
                    OFFSET -0.679943 -1.17582 0.444246
                    CHANNELS 6 Xposition Yposition Zposition Zrotation Xrotation Yrotation
                    End Site
                    {
                      OFFSET -0.343874 -0.941341 0.267611
                    }
                  }
                }
              }
              JOINT rRing1
              {
                OFFSET -3.47877 0.200518 0.597719
                CHANNELS 6 Xposition Yposition Zposition Zrotation Xrotation Yrotation
                JOINT rRing2
                {
                  OFFSET -1.28208 -0.53155 0.44672
                  CHANNELS 6 Xposition Yposition Zposition Zrotation Xrotation Yrotation
                  JOINT rRing3
                  {
                    OFFSET -0.710288 -0.970167 0.4032
                    CHANNELS 6 Xposition Yposition Zposition Zrotation Xrotation Yrotation
                    End Site
                    {
                      OFFSET -0.403228 -0.950952 0.378354
                    }
                  }
                }
              }
              JOINT rPinky1
              {
                OFFSET -3.42483 -0.278904 -0.240415
                CHANNELS 6 Xposition Yposition Zposition Zrotation Xrotation Yrotation
                JOINT rPinky2
                {
                  OFFSET -1.05787 -0.635999 0.156459
                  CHANNELS 6 Xposition Yposition Zposition Zrotation Xrotation Yrotation
                  JOINT rPinky3
                  {
                    OFFSET -0.42815 -0.754232 0.287187
                    CHANNELS 6 Xposition Yposition Zposition Zrotation Xrotation Yrotation
                    End Site
                    {
                      OFFSET -0.235717 -0.725605 0.279416
                    }
                  }
                }
              }
            }
          }
        }
      }
      JOINT lCollar
      {
        OFFSET 1.4963 7.5744 -1.52136
        CHANNELS 6 Xposition Yposition Zposition Zrotation Xrotation Yrotation
        JOINT lShldr
        {
          OFFSET 5.47506 -0.905672 0.485692
          CHANNELS 6 Xposition Yposition Zposition Zrotation Xrotation Yrotation
          JOINT lForeArm
          {
            OFFSET 11.3069 -0.201091 0.618544
            CHANNELS 6 Xposition Yposition Zposition Zrotation Xrotation Yrotation
            JOINT lHand
            {
              OFFSET 9.61414 -0.254739 3.48553
              CHANNELS 6 Xposition Yposition Zposition Zrotation Xrotation Yrotation
              JOINT lThumb1
              {
                OFFSET -0.176263 -0.07068 1.26622
                CHANNELS 6 Xposition Yposition Zposition Zrotation Xrotation Yrotation
                JOINT lThumb2
                {
                  OFFSET 1.04683 -0.546484 1.82182
                  CHANNELS 6 Xposition Yposition Zposition Zrotation Xrotation Yrotation
                  JOINT lThumb3
                  {
                    OFFSET 0.993472 -0.621916 0.655506
                    CHANNELS 6 Xposition Yposition Zposition Zrotation Xrotation Yrotation
                    End Site
                    {
                      OFFSET 0.996134 -0.66263 0.644615
                    }
                  }
                }
              }
              JOINT lIndex1
              {
                OFFSET 2.64253 0.566363 2.4162
                CHANNELS 6 Xposition Yposition Zposition Zrotation Xrotation Yrotation
                JOINT lIndex2
                {
                  OFFSET 1.39394 -0.635138 0.899356
                  CHANNELS 6 Xposition Yposition Zposition Zrotation Xrotation Yrotation
                  JOINT lIndex3
                  {
                    OFFSET 0.622395 -0.856016 0.402182
                    CHANNELS 6 Xposition Yposition Zposition Zrotation Xrotation Yrotation
                    End Site
                    {
                      OFFSET 0.472476 -0.801802 0.34216
                    }
                  }
                }
              }
              JOINT lMid1
              {
                OFFSET 3.20814 0.514427 1.52547
                CHANNELS 6 Xposition Yposition Zposition Zrotation Xrotation Yrotation
                JOINT lMid2
                {
                  OFFSET 1.56545 -0.497974 0.68919
                  CHANNELS 6 Xposition Yposition Zposition Zrotation Xrotation Yrotation
                  JOINT lMid3
                  {
                    OFFSET 0.679943 -1.17582 0.444246
                    CHANNELS 6 Xposition Yposition Zposition Zrotation Xrotation Yrotation
                    End Site
                    {
                      OFFSET 0.343874 -0.941341 0.267611
                    }
                  }
                }
              }
              JOINT lRing1
              {
                OFFSET 3.47877 0.200518 0.597719
                CHANNELS 6 Xposition Yposition Zposition Zrotation Xrotation Yrotation
                JOINT lRing2
                {
                  OFFSET 1.28208 -0.53155 0.44672
                  CHANNELS 6 Xposition Yposition Zposition Zrotation Xrotation Yrotation
                  JOINT lRing3
                  {
                    OFFSET 0.710288 -0.970167 0.4032
                    CHANNELS 6 Xposition Yposition Zposition Zrotation Xrotation Yrotation
                    End Site
                    {
                      OFFSET 0.403228 -0.950952 0.378354
                    }
                  }
                }
              }
              JOINT lPinky1
              {
                OFFSET 3.42483 -0.278904 -0.240415
                CHANNELS 6 Xposition Yposition Zposition Zrotation Xrotation Yrotation
                JOINT lPinky2
                {
                  OFFSET 1.05787 -0.635999 0.156459
                  CHANNELS 6 Xposition Yposition Zposition Zrotation Xrotation Yrotation
                  JOINT lPinky3
                  {
                    OFFSET 0.42815 -0.754232 0.287187
                    CHANNELS 6 Xposition Yposition Zposition Zrotation Xrotation Yrotation
                    End Site
                    {
                      OFFSET 0.235717 -0.725605 0.279416
                    }
                  }
                }
              }
            }
          }
        }
      }
    }
  }
  JOINT rThigh
  {
    OFFSET -4.17848 -1.02486 0.046356
    CHANNELS 6 Xposition Yposition Zposition Zrotation Xrotation Yrotation
    JOINT rShin
    {
      OFFSET 1.27155 -17.465 -0.237699
      CHANNELS 6 Xposition Yposition Zposition Zrotation Xrotation Yrotation
      JOINT rFoot
      {
        OFFSET 0.529163 -17.3815 -1.19582
        CHANNELS 6 Xposition Yposition Zposition Zrotation Xrotation Yrotation
        JOINT rToe
        {
          OFFSET -0.711591 -4.4863 4.0596
          CHANNELS 6 Xposition Yposition Zposition Zrotation Xrotation Yrotation
          End Site
          {
            OFFSET -0.869915 -1.10655 1.99006
          }
        }
      }
    }
  }
  JOINT lThigh
  {
    OFFSET 4.17848 -1.02486 0.046356
    CHANNELS 6 Xposition Yposition Zposition Zrotation Xrotation Yrotation
    JOINT lShin
    {
      OFFSET -1.27155 -17.465 -0.237699
      CHANNELS 6 Xposition Yposition Zposition Zrotation Xrotation Yrotation
      JOINT lFoot
      {
        OFFSET -0.529163 -17.3815 -1.19582
        CHANNELS 6 Xposition Yposition Zposition Zrotation Xrotation Yrotation
        JOINT lToe
        {
          OFFSET 0.711591 -4.4863 4.0596
          CHANNELS 6 Xposition Yposition Zposition Zrotation Xrotation Yrotation
          End Site
          {
            OFFSET 0.869915 -1.10655 1.99006
          }
        }
      }
    }
  }
}
MOTION
Frames:	4
Frame Time:	0.0333333
-16.9668 42.868 -22.8232 -0.635287 6.14509 101.884 3.55271e-015 5.99393 0.287273 0.0206301 -3.58793 1.70378 -3.55271e-015 6.65865 -0.856112 0.148893 -7.17377 3.41903 3.55271e-015 8.65624 -1.42685 -0.57056 13.6137 -8.57515 0 3.80999 -0.190247 -6.33082 -1.10015 -8.80723 -1.4963 7.5744 -1.52136 -43.5806 -1.20682 5.58144 -5.47506 -0.905672 0.485692 -7.91455 -42.054 -3.66545 -11.3069 -0.201091 0.618544 2.07429 -34.9783 9.81107 -9.61414 -0.254739 3.48553 9.33555 -20.4715 -7.71137 0.176263 -0.07068 1.26622 -15.6871 50.412 18.5116 -1.04683 -0.546484 1.82182 -0.515937 0.557624 -1.56017 -0.993472 -0.621916 0.655506 -2.72965 3.3553 -8.8295 -2.64253 0.566363 2.4162 -23.6212 5.47093 -14.5209 -1.39394 -0.635138 0.899356 39.8961 7.70397 -8.81741 -0.622395 -0.856016 0.402182 39.2013 7.6294 -8.62655 -3.20814 0.514427 1.52547 -0.840499 5.94957 -9.82425 -1.56545 -0.497974 0.68919 52.7411 10.533 -13.0893 -0.679943 -1.17582 0.444246 44.481 9.78101 -10.5178 -3.47877 0.200518 0.597719 16.3707 -0.644949 -5.84616 -1.28208 -0.53155 0.44672 37.8364 9.71767 -10.3215 -0.710288 -0.970167 0.4032 39.1355 9.91104 -10.7659 -3.42483 -0.278904 -0.240415 24.5435 -1.90436 -2.26386 -1.05787 -0.635999 0.156459 31.0686 9.47879 -7.89268 -0.42815 -0.754232 0.287187 30.9985 9.46351 -7.86998 1.4963 7.5744 -1.52136 0.496445 0.856011 8.23864 5.47506 -0.905672 0.485692 -75.3947 -1.15724 30.862 11.3069 -0.201091 0.618544 1.29097 6.76742 -11.9961 9.61414 -0.254739 3.48553 -21.6355 -37.5599 0.727012 -0.176263 -0.07068 1.26622 0.000324659 0.000324742 2.30744e-005 1.04683 -0.546484 1.82182 -0.00284542 0.00186768 0.00474995 0.993472 -0.621916 0.655506 -0.000179938 4.28587e-005 1.48515e-005 2.64253 0.566363 2.4162 -9.08785e-005 -0.000120387 0.000192501 1.39394 -0.635138 0.899356 0.000379168 0.00015402 -1.20364e-005 0.622395 -0.856016 0.402182 -0.000175284 1.20296e-005 2.7523e-005 3.20814 0.514427 1.52547 2.09793 -0.815572 -0.831925 1.56545 -0.497974 0.68919 2.09899 -0.816071 -0.832346 0.679943 -1.17582 0.444246 2.09906 -0.816181 -0.832656 3.47877 0.200518 0.597719 2.14283 -3.85044 -5.50197 1.28208 -0.53155 0.44672 4.62104 -2.03843 -2.04494 0.710288 -0.970167 0.4032 4.62132 -2.03843 -2.04499 3.42483 -0.278904 -0.240415 11.3265 -5.70937 -4.60753 1.05787 -0.635999 0.156459 4.05251 -1.91413 -1.7564 0.42815 -0.754232 0.287187 2.8428 -1.32697 -1.24339 -4.17848 -1.02486 0.046356 -2.15521 -19.8206 44.8099 1.27155 -17.465 -0.237699 9.22214 39.7438 -1.7725 0.529163 -17.3815 -1.19582 -12.8308 8.83003 -21.2816 -0.711591 -4.4863 4.0596 25.3427 -2.83521 -8.17085 4.17848 -1.02486 0.046356 -20.3969 2.94217 -1.41153 -1.27155 -17.465 -0.237699 0.48654 -3.16369 0.933151 -0.529163 -17.3815 -1.19582 9.35535 0.313348 -6.28028 0.711591 -4.4863 4.0596 5.83441 4.8998 -1.08936 
-16.8887 42.8226 -22.9146 -0.634621 6.46578 102.61 -3.55271e-015 5.99393 0.287273 -0.0274855 -3.74069 1.76762 -3.55271e-015 6.65865 -0.856112 0.0612228 -7.48056 3.54487 0 8.65624 -1.42685 -0.463789 13.9935 -8.88233 0 3.80999 -0.190247 -6.51412 -0.939261 -9.03485 -1.4963 7.5744 -1.52136 -43.5742 -1.20471 5.55579 -5.47506 -0.905672 0.485692 -8.66394 -42.3762 -3.22899 -11.3069 -0.201091 0.618544 1.55082 -34.4033 8.17987 -9.61414 -0.254739 3.48553 9.71908 -19.6651 -7.39086 0.176263 -0.07068 1.26622 -15.6871 50.412 18.5116 -1.04683 -0.546484 1.82182 -0.515927 0.557636 -1.56016 -0.993472 -0.621916 0.655506 -2.72964 3.35531 -8.82949 -2.64253 0.566363 2.4162 -23.6212 5.47094 -14.5209 -1.39394 -0.635138 0.899356 39.8961 7.70398 -8.81741 -0.622395 -0.856016 0.402182 39.2014 7.62941 -8.62656 -3.20814 0.514427 1.52547 -0.840479 5.94957 -9.82426 -1.56545 -0.497974 0.68919 52.7411 10.533 -13.0893 -0.679943 -1.17582 0.444246 44.481 9.78102 -10.5178 -3.47877 0.200518 0.597719 16.3707 -0.644968 -5.84616 -1.28208 -0.53155 0.44672 37.8364 9.7177 -10.3215 -0.710288 -0.970167 0.4032 39.1355 9.91104 -10.7659 -3.42483 -0.278904 -0.240415 24.5435 -1.90435 -2.26385 -1.05787 -0.635999 0.156459 31.0686 9.47879 -7.89267 -0.42815 -0.754232 0.287187 30.9985 9.4635 -7.86998 1.4963 7.5744 -1.52136 0.0519587 0.900403 8.59376 5.47506 -0.905672 0.485692 -74.0954 -1.38405 31.1973 11.3069 -0.201091 0.618544 1.80275 6.49051 -11.5978 9.61414 -0.254739 3.48553 -21.6847 -37.419 1.97041 -0.176263 -0.07068 1.26622 -0.0566936 -0.0215788 -0.119594 1.04683 -0.546484 1.82182 -0.0221855 -0.00675598 -0.03913 0.993472 -0.621916 0.655506 -0.0241963 -0.00707327 -0.0427843 2.64253 0.566363 2.4162 0.0849183 -0.039311 -0.0828268 1.39394 -0.635138 0.899356 0.0847213 -0.0281335 -0.0337234 0.622395 -0.856016 0.402182 0.0937911 -0.0314964 -0.0375267 3.20814 0.514427 1.52547 2.17652 -0.84619 -0.862531 1.56545 -0.497974 0.68919 2.1774 -0.847228 -0.862967 0.679943 -1.17582 0.444246 2.17747 -0.847329 -0.863262 3.47877 0.200518 0.597719 2.2171 -3.86478 -5.50482 1.28208 -0.53155 0.44672 4.67952 -2.06549 -2.06997 0.710288 -0.970167 0.4032 4.67983 -2.06549 -2.07002 3.42483 -0.278904 -0.240415 11.3823 -5.6867 -4.55127 1.05787 -0.635999 0.156459 4.11417 -1.94442 -1.78224 0.42815 -0.754232 0.287187 2.91967 -1.34307 -1.27045 -4.17848 -1.02486 0.046356 -2.21779 -19.5061 45.3098 1.27155 -17.465 -0.237699 9.46862 40.1686 -1.8829 0.529163 -17.3815 -1.19582 -12.8656 9.24788 -21.6965 -0.711591 -4.4863 4.0596 26.2313 -2.99378 -8.65948 4.17848 -1.02486 0.046356 -20.8246 3.26177 -2.01327 -1.27155 -17.465 -0.237699 0.486536 -3.03497 0.948535 -0.529163 -17.3815 -1.19582 9.59704 0.322785 -6.40579 0.711591 -4.4863 4.0596 5.78841 4.84371 -1.07321 
-16.8112 42.7813 -22.9863 -0.62219 6.9098 103.584 0 5.99393 0.287273 -0.145211 -3.84855 1.73981 3.55271e-015 6.65865 -0.856112 -0.173573 -7.69963 3.48157 3.55271e-015 8.65624 -1.42685 -0.366538 14.3364 -9.09022 0 3.80999 -0.190247 -6.68184 -0.830256 -9.28277 -1.4963 7.5744 -1.52136 -43.5543 -1.19861 5.4807 -5.47506 -0.905672 0.485692 -9.31889 -42.532 -2.97516 -11.3069 -0.201091 0.618544 1.08707 -33.786 7.07801 -9.61414 -0.254739 3.48553 10.0465 -19.1887 -7.31237 0.176263 -0.07068 1.26622 -15.6871 50.412 18.5116 -1.04683 -0.546484 1.82182 -0.515942 0.557626 -1.56015 -0.993472 -0.621916 0.655506 -2.72964 3.3553 -8.82947 -2.64253 0.566363 2.4162 -23.6212 5.47093 -14.5209 -1.39394 -0.635138 0.899356 39.8961 7.70397 -8.81742 -0.622395 -0.856016 0.402182 39.2013 7.6294 -8.62654 -3.20814 0.514427 1.52547 -0.840495 5.94957 -9.82426 -1.56545 -0.497974 0.68919 52.7411 10.533 -13.0893 -0.679943 -1.17582 0.444246 44.481 9.78103 -10.5178 -3.47877 0.200518 0.597719 16.3707 -0.64495 -5.84615 -1.28208 -0.53155 0.44672 37.8364 9.71769 -10.3215 -0.710288 -0.970167 0.4032 39.1355 9.91104 -10.7659 -3.42483 -0.278904 -0.240415 24.5435 -1.90436 -2.26386 -1.05787 -0.635999 0.156459 31.0686 9.4788 -7.89266 -0.42815 -0.754232 0.287187 30.9985 9.46352 -7.86998 1.4963 7.5744 -1.52136 -0.621466 0.948145 8.98241 5.47506 -0.905672 0.485692 -72.0998 -1.93511 30.9446 11.3069 -0.201091 0.618544 1.81593 4.96358 -10.3399 9.61414 -0.254739 3.48553 -20.9079 -35.5678 3.56203 -0.176263 -0.07068 1.26622 -0.220669 -0.0829115 -0.46286 1.04683 -0.546484 1.82182 -0.0852284 -0.0253446 -0.151431 0.993472 -0.621916 0.655506 -0.0931179 -0.0273955 -0.165577 2.64253 0.566363 2.4162 0.32874 -0.152027 -0.320749 1.39394 -0.635138 0.899356 0.326645 -0.109568 -0.130213 0.622395 -0.856016 0.402182 0.363259 -0.122197 -0.144948 3.20814 0.514427 1.52547 2.40198 -0.934318 -0.950148 1.56545 -0.497974 0.68919 2.40229 -0.936878 -0.95054 0.679943 -1.17582 0.444246 2.40232 -0.936958 -0.950808 3.47877 0.200518 0.597719 2.43028 -3.90612 -5.51293 1.28208 -0.53155 0.44672 4.84734 -2.14326 -2.14163 0.710288 -0.970167 0.4032 4.8476 -2.14322 -2.14169 3.42483 -0.278904 -0.240415 11.5421 -5.62148 -4.38997 1.05787 -0.635999 0.156459 4.291 -2.03144 -1.85623 0.42815 -0.754232 0.287187 3.12328 -1.43874 -1.35666 -4.17848 -1.02486 0.046356 -2.45953 -19.3413 45.6006 1.27155 -17.465 -0.237699 9.74309 40.7765 -2.07377 0.529163 -17.3815 -1.19582 -12.5182 9.91599 -21.5713 -0.711591 -4.4863 4.0596 26.8946 -4.08127 -8.52997 4.17848 -1.02486 0.046356 -21.2974 3.79929 -2.72605 -1.27155 -17.465 -0.237699 0.489474 -3.16249 0.971363 -0.529163 -17.3815 -1.19582 9.7439 0.510536 -6.69384 0.711591 -4.4863 4.0596 5.7799 4.77679 -1.06781 
-16.7167 42.7451 -23.0629 -0.531282 7.35135 104.557 0 5.99393 0.287273 -0.257304 -3.90963 1.62703 -3.55271e-015 6.65865 -0.856112 -0.404361 -7.82498 3.24777 7.10543e-015 8.65624 -1.42685 -0.269056 14.5366 -9.03406 0 3.80999 -0.190247 -6.80515 -0.582534 -9.43795 -1.4963 7.5744 -1.52136 -43.52 -1.18867 5.35909 -5.47506 -0.905672 0.485692 -9.89811 -42.6582 -2.55926 -11.3069 -0.201091 0.618544 0.525356 -32.9333 5.92578 -9.61414 -0.254739 3.48553 10.4938 -19.2106 -7.14806 0.176263 -0.07068 1.26622 -15.6871 50.412 18.5117 -1.04683 -0.546484 1.82182 -0.515929 0.557639 -1.56014 -0.993472 -0.621916 0.655506 -2.72965 3.3553 -8.82947 -2.64253 0.566363 2.4162 -23.6212 5.47094 -14.5209 -1.39394 -0.635138 0.899356 39.8961 7.70401 -8.81743 -0.622395 -0.856016 0.402182 39.2013 7.62941 -8.62655 -3.20814 0.514427 1.52547 -0.840497 5.94956 -9.82427 -1.56545 -0.497974 0.68919 52.7411 10.533 -13.0893 -0.679943 -1.17582 0.444246 44.481 9.78102 -10.5178 -3.47877 0.200518 0.597719 16.3707 -0.644958 -5.84617 -1.28208 -0.53155 0.44672 37.8363 9.7177 -10.3215 -0.710288 -0.970167 0.4032 39.1354 9.91105 -10.7659 -3.42483 -0.278904 -0.240415 24.5435 -1.90433 -2.26386 -1.05787 -0.635999 0.156459 31.0686 9.47879 -7.89266 -0.42815 -0.754232 0.287187 30.9985 9.46352 -7.86998 1.4963 7.5744 -1.52136 -1.48207 1.00354 9.44069 5.47506 -0.905672 0.485692 -69.6371 -2.64333 30.7397 11.3069 -0.201091 0.618544 1.75557 2.96028 -9.60587 9.61414 -0.254739 3.48553 -19.8484 -34.0709 5.1753 -0.176263 -0.07068 1.26622 -0.483679 -0.178601 -1.00584 1.04683 -0.546484 1.82182 -0.185016 -0.0545114 -0.329109 0.993472 -0.621916 0.655506 -0.202306 -0.05929 -0.35999 2.64253 0.566363 2.4162 0.714074 -0.331176 -0.696629 1.39394 -0.635138 0.899356 0.709185 -0.239247 -0.282227 0.622395 -0.856016 0.402182 0.789472 -0.266855 -0.314155 3.20814 0.514427 1.52547 2.75852 -1.07459 -1.08812 1.56545 -0.497974 0.68919 2.75792 -1.07944 -1.08842 0.679943 -1.17582 0.444246 2.75799 -1.07956 -1.08872 3.47877 0.200518 0.597719 2.76759 -3.97217 -5.52519 1.28208 -0.53155 0.44672 5.11276 -2.26674 -2.25458 0.710288 -0.970167 0.4032 5.11302 -2.26675 -2.25463 3.42483 -0.278904 -0.240415 11.7946 -5.51757 -4.13492 1.05787 -0.635999 0.156459 4.57066 -2.16966 -1.97282 0.42815 -0.754232 0.287187 3.43007 -1.61036 -1.49358 -4.17848 -1.02486 0.046356 -2.66981 -19.4176 46.1671 1.27155 -17.465 -0.237699 10.1125 41.6356 -2.34179 0.529163 -17.3815 -1.19582 -11.082 11.0084 -20.7818 -0.711591 -4.4863 4.0596 27.9301 -5.0952 -8.6167 4.17848 -1.02486 0.046356 -21.76 4.37648 -3.56791 -1.27155 -17.465 -0.237699 0.48612 -3.16311 0.951082 -0.529163 -17.3815 -1.19582 9.97823 0.665742 -6.79427 0.711591 -4.4863 4.0596 5.3173 4.29354 -0.912106 
